<?xml version="1.0" standalone="no"?><!DOCTYPE svg PUBLIC "-//W3C//DTD SVG 1.1//EN" "http://www.w3.org/Graphics/SVG/1.1/DTD/svg11.dtd"><svg t="1569558564102" class="icon" viewBox="0 0 1024 1024" version="1.1" xmlns="http://www.w3.org/2000/svg" p-id="7422" xmlns:xlink="http://www.w3.org/1999/xlink" width="48" height="48"><defs><style type="text/css"></style></defs><path d="M320.32 543.104l-139.936 77.568a16 16 0 0 0 15.52 27.968l139.936-77.568a16 16 0 1 0-15.52-27.968z" fill="#4FCAC3" p-id="7423"></path><path d="M459.616 286.08a150.56 150.56 0 0 0-212.704 0 150.496 150.496 0 0 0 0 212.704L480 731.84l233.024-233.056a150.56 150.56 0 0 0 0-212.704 150.496 150.496 0 0 0-212.672 0L480 306.432l-20.384-20.352z" fill="#F83B57" p-id="7424"></path><path d="M878.72 362.816l-102.528-52.928 9.408-115.008 139.936-77.568-5.92 113.056 99.008 54.88z" fill="#4FCAC3" p-id="7425"></path><path d="M894.08 225.056l-405.824 224.96a16 16 0 1 0 15.488 27.968l405.824-224.96-15.488-27.968zM20.288 728.48L169.6 535.904l22.08 97.536 71.04 70.4z" fill="#4FCAC3" p-id="7426"></path></svg>